<svg xmlns="http://www.w3.org/2000/svg" width="181" height="316" viewBox="0 0 181 316" fill="none"><g opacity="0.2"><path fill-rule="evenodd" clip-rule="evenodd" d="M2.83333 174.654C4.39814 174.654 5.66667 173.388 5.66667 171.827C5.66667 170.266 4.39814 169 2.83333 169C1.26853 169 0 170.266 0 171.827C0 173.388 1.26853 174.654 2.83333 174.654ZM2.83333 202.923C4.39814 202.923 5.66667 201.657 5.66667 200.096C5.66667 198.535 4.39814 197.269 2.83333 197.269C1.26853 197.269 0 198.535 0 200.096C0 201.657 1.26853 202.923 2.83333 202.923ZM5.66667 228.365C5.66667 229.927 4.39814 231.192 2.83333 231.192C1.26853 231.192 0 229.927 0 228.365C0 226.804 1.26853 225.538 2.83333 225.538C4.39814 225.538 5.66667 226.804 5.66667 228.365ZM2.83333 259.462C4.39814 259.462 5.66667 258.196 5.66667 256.635C5.66667 255.073 4.39814 253.808 2.83333 253.808C1.26853 253.808 0 255.073 0 256.635C0 258.196 1.26853 259.462 2.83333 259.462ZM5.66667 284.904C5.66667 286.465 4.39814 287.731 2.83333 287.731C1.26853 287.731 0 286.465 0 284.904C0 283.343 1.26853 282.077 2.83333 282.077C4.39814 282.077 5.66667 283.343 5.66667 284.904ZM2.83333 316C4.39814 316 5.66667 314.734 5.66667 313.173C5.66667 311.612 4.39814 310.346 2.83333 310.346C1.26853 310.346 0 311.612 0 313.173C0 314.734 1.26853 316 2.83333 316ZM34 171.827C34 173.388 32.7315 174.654 31.1667 174.654C29.6019 174.654 28.3333 173.388 28.3333 171.827C28.3333 170.266 29.6019 169 31.1667 169C32.7315 169 34 170.266 34 171.827ZM31.1667 202.923C32.7315 202.923 34 201.657 34 200.096C34 198.535 32.7315 197.269 31.1667 197.269C29.6019 197.269 28.3333 198.535 28.3333 200.096C28.3333 201.657 29.6019 202.923 31.1667 202.923ZM34 228.365C34 229.927 32.7315 231.192 31.1667 231.192C29.6019 231.192 28.3333 229.927 28.3333 228.365C28.3333 226.804 29.6019 225.538 31.1667 225.538C32.7315 225.538 34 226.804 34 228.365ZM31.1667 259.462C32.7315 259.462 34 258.196 34 256.635C34 255.073 32.7315 253.808 31.1667 253.808C29.6019 253.808 28.3333 255.073 28.3333 256.635C28.3333 258.196 29.6019 259.462 31.1667 259.462ZM34 284.904C34 286.465 32.7315 287.731 31.1667 287.731C29.6019 287.731 28.3333 286.465 28.3333 284.904C28.3333 283.343 29.6019 282.077 31.1667 282.077C32.7315 282.077 34 283.343 34 284.904ZM31.1667 316C32.7315 316 34 314.734 34 313.173C34 311.612 32.7315 310.346 31.1667 310.346C29.6019 310.346 28.3333 311.612 28.3333 313.173C28.3333 314.734 29.6019 316 31.1667 316Z" fill="black"></path><path fill-rule="evenodd" clip-rule="evenodd" d="M2.83333 5.65385C4.39814 5.65385 5.66667 4.38819 5.66667 2.82692C5.66667 1.26566 4.39814 0 2.83333 0C1.26853 0 0 1.26566 0 2.82692C0 4.38819 1.26853 5.65385 2.83333 5.65385ZM2.83333 33.9231C4.39814 33.9231 5.66667 32.6574 5.66667 31.0962C5.66667 29.5349 4.39814 28.2692 2.83333 28.2692C1.26853 28.2692 0 29.5349 0 31.0962C0 32.6574 1.26853 33.9231 2.83333 33.9231ZM5.66667 59.3654C5.66667 60.9267 4.39814 62.1923 2.83333 62.1923C1.26853 62.1923 0 60.9267 0 59.3654C0 57.8041 1.26853 56.5385 2.83333 56.5385C4.39814 56.5385 5.66667 57.8041 5.66667 59.3654ZM2.83333 90.4615C4.39814 90.4615 5.66667 89.1959 5.66667 87.6346C5.66667 86.0734 4.39814 84.8077 2.83333 84.8077C1.26853 84.8077 0 86.0734 0 87.6346C0 89.1959 1.26853 90.4615 2.83333 90.4615ZM5.66667 115.904C5.66667 117.465 4.39814 118.731 2.83333 118.731C1.26853 118.731 0 117.465 0 115.904C0 114.343 1.26853 113.077 2.83333 113.077C4.39814 113.077 5.66667 114.343 5.66667 115.904ZM2.83333 147C4.39814 147 5.66667 145.734 5.66667 144.173C5.66667 142.612 4.39814 141.346 2.83333 141.346C1.26853 141.346 0 142.612 0 144.173C0 145.734 1.26853 147 2.83333 147ZM34 2.82692C34 4.38819 32.7315 5.65385 31.1667 5.65385C29.6019 5.65385 28.3333 4.38819 28.3333 2.82692C28.3333 1.26566 29.6019 0 31.1667 0C32.7315 0 34 1.26566 34 2.82692ZM31.1667 33.9231C32.7315 33.9231 34 32.6574 34 31.0962C34 29.5349 32.7315 28.2692 31.1667 28.2692C29.6019 28.2692 28.3333 29.5349 28.3333 31.0962C28.3333 32.6574 29.6019 33.9231 31.1667 33.9231ZM34 59.3654C34 60.9267 32.7315 62.1923 31.1667 62.1923C29.6019 62.1923 28.3333 60.9267 28.3333 59.3654C28.3333 57.8041 29.6019 56.5385 31.1667 56.5385C32.7315 56.5385 34 57.8041 34 59.3654ZM31.1667 90.4615C32.7315 90.4615 34 89.1959 34 87.6346C34 86.0734 32.7315 84.8077 31.1667 84.8077C29.6019 84.8077 28.3333 86.0734 28.3333 87.6346C28.3333 89.1959 29.6019 90.4615 31.1667 90.4615ZM34 115.904C34 117.465 32.7315 118.731 31.1667 118.731C29.6019 118.731 28.3333 117.465 28.3333 115.904C28.3333 114.343 29.6019 113.077 31.1667 113.077C32.7315 113.077 34 114.343 34 115.904ZM31.1667 147C32.7315 147 34 145.734 34 144.173C34 142.612 32.7315 141.346 31.1667 141.346C29.6019 141.346 28.3333 142.612 28.3333 144.173C28.3333 145.734 29.6019 147 31.1667 147Z" fill="black"></path><path fill-rule="evenodd" clip-rule="evenodd" d="M60.8333 174.654C62.3981 174.654 63.6667 173.388 63.6667 171.827C63.6667 170.266 62.3981 169 60.8333 169C59.2685 169 58 170.266 58 171.827C58 173.388 59.2685 174.654 60.8333 174.654ZM60.8333 202.923C62.3981 202.923 63.6667 201.657 63.6667 200.096C63.6667 198.535 62.3981 197.269 60.8333 197.269C59.2685 197.269 58 198.535 58 200.096C58 201.657 59.2685 202.923 60.8333 202.923ZM63.6667 228.365C63.6667 229.927 62.3981 231.192 60.8333 231.192C59.2685 231.192 58 229.927 58 228.365C58 226.804 59.2685 225.538 60.8333 225.538C62.3981 225.538 63.6667 226.804 63.6667 228.365ZM60.8333 259.462C62.3981 259.462 63.6667 258.196 63.6667 256.635C63.6667 255.073 62.3981 253.808 60.8333 253.808C59.2685 253.808 58 255.073 58 256.635C58 258.196 59.2685 259.462 60.8333 259.462ZM63.6667 284.904C63.6667 286.465 62.3981 287.731 60.8333 287.731C59.2685 287.731 58 286.465 58 284.904C58 283.343 59.2685 282.077 60.8333 282.077C62.3981 282.077 63.6667 283.343 63.6667 284.904ZM60.8333 316C62.3981 316 63.6667 314.734 63.6667 313.173C63.6667 311.612 62.3981 310.346 60.8333 310.346C59.2685 310.346 58 311.612 58 313.173C58 314.734 59.2685 316 60.8333 316ZM92 171.827C92 173.388 90.7315 174.654 89.1667 174.654C87.6019 174.654 86.3333 173.388 86.3333 171.827C86.3333 170.266 87.6019 169 89.1667 169C90.7315 169 92 170.266 92 171.827ZM89.1667 202.923C90.7315 202.923 92 201.657 92 200.096C92 198.535 90.7315 197.269 89.1667 197.269C87.6019 197.269 86.3333 198.535 86.3333 200.096C86.3333 201.657 87.6019 202.923 89.1667 202.923ZM92 228.365C92 229.927 90.7315 231.192 89.1667 231.192C87.6019 231.192 86.3333 229.927 86.3333 228.365C86.3333 226.804 87.6019 225.538 89.1667 225.538C90.7315 225.538 92 226.804 92 228.365ZM89.1667 259.462C90.7315 259.462 92 258.196 92 256.635C92 255.073 90.7315 253.808 89.1667 253.808C87.6019 253.808 86.3333 255.073 86.3333 256.635C86.3333 258.196 87.6019 259.462 89.1667 259.462ZM92 284.904C92 286.465 90.7315 287.731 89.1667 287.731C87.6019 287.731 86.3333 286.465 86.3333 284.904C86.3333 283.343 87.6019 282.077 89.1667 282.077C90.7315 282.077 92 283.343 92 284.904ZM89.1667 316C90.7315 316 92 314.734 92 313.173C92 311.612 90.7315 310.346 89.1667 310.346C87.6019 310.346 86.3333 311.612 86.3333 313.173C86.3333 314.734 87.6019 316 89.1667 316Z" fill="black"></path><path fill-rule="evenodd" clip-rule="evenodd" d="M60.8333 5.65385C62.3981 5.65385 63.6667 4.38819 63.6667 2.82692C63.6667 1.26566 62.3981 0 60.8333 0C59.2685 0 58 1.26566 58 2.82692C58 4.38819 59.2685 5.65385 60.8333 5.65385ZM60.8333 33.9231C62.3981 33.9231 63.6667 32.6574 63.6667 31.0962C63.6667 29.5349 62.3981 28.2692 60.8333 28.2692C59.2685 28.2692 58 29.5349 58 31.0962C58 32.6574 59.2685 33.9231 60.8333 33.9231ZM63.6667 59.3654C63.6667 60.9267 62.3981 62.1923 60.8333 62.1923C59.2685 62.1923 58 60.9267 58 59.3654C58 57.8041 59.2685 56.5385 60.8333 56.5385C62.3981 56.5385 63.6667 57.8041 63.6667 59.3654ZM60.8333 90.4615C62.3981 90.4615 63.6667 89.1959 63.6667 87.6346C63.6667 86.0734 62.3981 84.8077 60.8333 84.8077C59.2685 84.8077 58 86.0734 58 87.6346C58 89.1959 59.2685 90.4615 60.8333 90.4615ZM63.6667 115.904C63.6667 117.465 62.3981 118.731 60.8333 118.731C59.2685 118.731 58 117.465 58 115.904C58 114.343 59.2685 113.077 60.8333 113.077C62.3981 113.077 63.6667 114.343 63.6667 115.904ZM60.8333 147C62.3981 147 63.6667 145.734 63.6667 144.173C63.6667 142.612 62.3981 141.346 60.8333 141.346C59.2685 141.346 58 142.612 58 144.173C58 145.734 59.2685 147 60.8333 147ZM92 2.82692C92 4.38819 90.7315 5.65385 89.1667 5.65385C87.6019 5.65385 86.3333 4.38819 86.3333 2.82692C86.3333 1.26566 87.6019 0 89.1667 0C90.7315 0 92 1.26566 92 2.82692ZM89.1667 33.9231C90.7315 33.9231 92 32.6574 92 31.0962C92 29.5349 90.7315 28.2692 89.1667 28.2692C87.6019 28.2692 86.3333 29.5349 86.3333 31.0962C86.3333 32.6574 87.6019 33.9231 89.1667 33.9231ZM92 59.3654C92 60.9267 90.7315 62.1923 89.1667 62.1923C87.6019 62.1923 86.3333 60.9267 86.3333 59.3654C86.3333 57.8041 87.6019 56.5385 89.1667 56.5385C90.7315 56.5385 92 57.8041 92 59.3654ZM89.1667 90.4615C90.7315 90.4615 92 89.1959 92 87.6346C92 86.0734 90.7315 84.8077 89.1667 84.8077C87.6019 84.8077 86.3333 86.0734 86.3333 87.6346C86.3333 89.1959 87.6019 90.4615 89.1667 90.4615ZM92 115.904C92 117.465 90.7315 118.731 89.1667 118.731C87.6019 118.731 86.3333 117.465 86.3333 115.904C86.3333 114.343 87.6019 113.077 89.1667 113.077C90.7315 113.077 92 114.343 92 115.904ZM89.1667 147C90.7315 147 92 145.734 92 144.173C92 142.612 90.7315 141.346 89.1667 141.346C87.6019 141.346 86.3333 142.612 86.3333 144.173C86.3333 145.734 87.6019 147 89.1667 147Z" fill="black"></path><path fill-rule="evenodd" clip-rule="evenodd" d="M119.833 174.654C121.398 174.654 122.667 173.388 122.667 171.827C122.667 170.266 121.398 169 119.833 169C118.269 169 117 170.266 117 171.827C117 173.388 118.269 174.654 119.833 174.654ZM119.833 202.923C121.398 202.923 122.667 201.657 122.667 200.096C122.667 198.535 121.398 197.269 119.833 197.269C118.269 197.269 117 198.535 117 200.096C117 201.657 118.269 202.923 119.833 202.923ZM122.667 228.365C122.667 229.927 121.398 231.192 119.833 231.192C118.269 231.192 117 229.927 117 228.365C117 226.804 118.269 225.538 119.833 225.538C121.398 225.538 122.667 226.804 122.667 228.365ZM119.833 259.462C121.398 259.462 122.667 258.196 122.667 256.635C122.667 255.073 121.398 253.808 119.833 253.808C118.269 253.808 117 255.073 117 256.635C117 258.196 118.269 259.462 119.833 259.462ZM122.667 284.904C122.667 286.465 121.398 287.731 119.833 287.731C118.269 287.731 117 286.465 117 284.904C117 283.343 118.269 282.077 119.833 282.077C121.398 282.077 122.667 283.343 122.667 284.904ZM119.833 316C121.398 316 122.667 314.734 122.667 313.173C122.667 311.612 121.398 310.346 119.833 310.346C118.269 310.346 117 311.612 117 313.173C117 314.734 118.269 316 119.833 316ZM151 171.827C151 173.388 149.731 174.654 148.167 174.654C146.602 174.654 145.333 173.388 145.333 171.827C145.333 170.266 146.602 169 148.167 169C149.731 169 151 170.266 151 171.827ZM148.167 202.923C149.731 202.923 151 201.657 151 200.096C151 198.535 149.731 197.269 148.167 197.269C146.602 197.269 145.333 198.535 145.333 200.096C145.333 201.657 146.602 202.923 148.167 202.923ZM151 228.365C151 229.927 149.731 231.192 148.167 231.192C146.602 231.192 145.333 229.927 145.333 228.365C145.333 226.804 146.602 225.538 148.167 225.538C149.731 225.538 151 226.804 151 228.365ZM148.167 259.462C149.731 259.462 151 258.196 151 256.635C151 255.073 149.731 253.808 148.167 253.808C146.602 253.808 145.333 255.073 145.333 256.635C145.333 258.196 146.602 259.462 148.167 259.462ZM151 284.904C151 286.465 149.731 287.731 148.167 287.731C146.602 287.731 145.333 286.465 145.333 284.904C145.333 283.343 146.602 282.077 148.167 282.077C149.731 282.077 151 283.343 151 284.904ZM148.167 316C149.731 316 151 314.734 151 313.173C151 311.612 149.731 310.346 148.167 310.346C146.602 310.346 145.333 311.612 145.333 313.173C145.333 314.734 146.602 316 148.167 316Z" fill="black"></path><path fill-rule="evenodd" clip-rule="evenodd" d="M119.833 5.65385C121.398 5.65385 122.667 4.38819 122.667 2.82692C122.667 1.26566 121.398 0 119.833 0C118.269 0 117 1.26566 117 2.82692C117 4.38819 118.269 5.65385 119.833 5.65385ZM119.833 33.9231C121.398 33.9231 122.667 32.6574 122.667 31.0962C122.667 29.5349 121.398 28.2692 119.833 28.2692C118.269 28.2692 117 29.5349 117 31.0962C117 32.6574 118.269 33.9231 119.833 33.9231ZM122.667 59.3654C122.667 60.9267 121.398 62.1923 119.833 62.1923C118.269 62.1923 117 60.9267 117 59.3654C117 57.8041 118.269 56.5385 119.833 56.5385C121.398 56.5385 122.667 57.8041 122.667 59.3654ZM119.833 90.4615C121.398 90.4615 122.667 89.1959 122.667 87.6346C122.667 86.0734 121.398 84.8077 119.833 84.8077C118.269 84.8077 117 86.0734 117 87.6346C117 89.1959 118.269 90.4615 119.833 90.4615ZM122.667 115.904C122.667 117.465 121.398 118.731 119.833 118.731C118.269 118.731 117 117.465 117 115.904C117 114.343 118.269 113.077 119.833 113.077C121.398 113.077 122.667 114.343 122.667 115.904ZM119.833 147C121.398 147 122.667 145.734 122.667 144.173C122.667 142.612 121.398 141.346 119.833 141.346C118.269 141.346 117 142.612 117 144.173C117 145.734 118.269 147 119.833 147ZM151 2.82692C151 4.38819 149.731 5.65385 148.167 5.65385C146.602 5.65385 145.333 4.38819 145.333 2.82692C145.333 1.26566 146.602 0 148.167 0C149.731 0 151 1.26566 151 2.82692ZM148.167 33.9231C149.731 33.9231 151 32.6574 151 31.0962C151 29.5349 149.731 28.2692 148.167 28.2692C146.602 28.2692 145.333 29.5349 145.333 31.0962C145.333 32.6574 146.602 33.9231 148.167 33.9231ZM151 59.3654C151 60.9267 149.731 62.1923 148.167 62.1923C146.602 62.1923 145.333 60.9267 145.333 59.3654C145.333 57.8041 146.602 56.5385 148.167 56.5385C149.731 56.5385 151 57.8041 151 59.3654ZM148.167 90.4615C149.731 90.4615 151 89.1959 151 87.6346C151 86.0734 149.731 84.8077 148.167 84.8077C146.602 84.8077 145.333 86.0734 145.333 87.6346C145.333 89.1959 146.602 90.4615 148.167 90.4615ZM151 115.904C151 117.465 149.731 118.731 148.167 118.731C146.602 118.731 145.333 117.465 145.333 115.904C145.333 114.343 146.602 113.077 148.167 113.077C149.731 113.077 151 114.343 151 115.904ZM148.167 147C149.731 147 151 145.734 151 144.173C151 142.612 149.731 141.346 148.167 141.346C146.602 141.346 145.333 142.612 145.333 144.173C145.333 145.734 146.602 147 148.167 147Z" fill="black"></path><path fill-rule="evenodd" clip-rule="evenodd" d="M177.833 174.654C179.398 174.654 180.667 173.388 180.667 171.827C180.667 170.266 179.398 169 177.833 169C176.269 169 175 170.266 175 171.827C175 173.388 176.269 174.654 177.833 174.654ZM177.833 202.923C179.398 202.923 180.667 201.657 180.667 200.096C180.667 198.535 179.398 197.269 177.833 197.269C176.269 197.269 175 198.535 175 200.096C175 201.657 176.269 202.923 177.833 202.923ZM180.667 228.365C180.667 229.927 179.398 231.192 177.833 231.192C176.269 231.192 175 229.927 175 228.365C175 226.804 176.269 225.538 177.833 225.538C179.398 225.538 180.667 226.804 180.667 228.365ZM177.833 259.462C179.398 259.462 180.667 258.196 180.667 256.635C180.667 255.073 179.398 253.808 177.833 253.808C176.269 253.808 175 255.073 175 256.635C175 258.196 176.269 259.462 177.833 259.462ZM180.667 284.904C180.667 286.465 179.398 287.731 177.833 287.731C176.269 287.731 175 286.465 175 284.904C175 283.343 176.269 282.077 177.833 282.077C179.398 282.077 180.667 283.343 180.667 284.904ZM177.833 316C179.398 316 180.667 314.734 180.667 313.173C180.667 311.612 179.398 310.346 177.833 310.346C176.269 310.346 175 311.612 175 313.173C175 314.734 176.269 316 177.833 316Z" fill="black"></path><path fill-rule="evenodd" clip-rule="evenodd" d="M177.833 5.65385C179.398 5.65385 180.667 4.38819 180.667 2.82692C180.667 1.26566 179.398 0 177.833 0C176.269 0 175 1.26566 175 2.82692C175 4.38819 176.269 5.65385 177.833 5.65385ZM177.833 33.9231C179.398 33.9231 180.667 32.6574 180.667 31.0962C180.667 29.5349 179.398 28.2692 177.833 28.2692C176.269 28.2692 175 29.5349 175 31.0962C175 32.6574 176.269 33.9231 177.833 33.9231ZM180.667 59.3654C180.667 60.9267 179.398 62.1923 177.833 62.1923C176.269 62.1923 175 60.9267 175 59.3654C175 57.8041 176.269 56.5385 177.833 56.5385C179.398 56.5385 180.667 57.8041 180.667 59.3654ZM177.833 90.4615C179.398 90.4615 180.667 89.1959 180.667 87.6346C180.667 86.0734 179.398 84.8077 177.833 84.8077C176.269 84.8077 175 86.0734 175 87.6346C175 89.1959 176.269 90.4615 177.833 90.4615ZM180.667 115.904C180.667 117.465 179.398 118.731 177.833 118.731C176.269 118.731 175 117.465 175 115.904C175 114.343 176.269 113.077 177.833 113.077C179.398 113.077 180.667 114.343 180.667 115.904ZM177.833 147C179.398 147 180.667 145.734 180.667 144.173C180.667 142.612 179.398 141.346 177.833 141.346C176.269 141.346 175 142.612 175 144.173C175 145.734 176.269 147 177.833 147Z" fill="black"></path></g></svg>