<svg xmlns="http://www.w3.org/2000/svg" xmlns:xlink="http://www.w3.org/1999/xlink" width="200" zoomAndPan="magnify" viewBox="0 0 150 52.499999" height="70" preserveAspectRatio="xMidYMid meet" version="1.0"><defs><g/><clipPath id="18241575e1"><path d="M 14 9.085938 L 40.722656 9.085938 L 40.722656 43 L 14 43 Z M 14 9.085938 " clip-rule="nonzero"/></clipPath></defs><g clip-path="url(#18241575e1)"><path fill="#ffffff" d="M 17.679688 9.085938 L 37.609375 9.085938 C 39.445312 9.085938 40.929688 10.5625 40.929688 12.386719 L 40.929688 38.816406 C 40.929688 40.644531 39.445312 42.121094 37.609375 42.121094 L 17.679688 42.121094 C 15.84375 42.121094 14.359375 40.644531 14.359375 38.816406 L 14.359375 12.386719 C 14.359375 10.5625 15.84375 9.085938 17.679688 9.085938 Z M 37.609375 12.386719 L 29.304688 12.386719 L 29.304688 25.601562 L 33.457031 23.125 L 37.609375 25.601562 Z M 37.609375 12.386719 " fill-opacity="1" fill-rule="nonzero"/></g><g fill="#ffffff" fill-opacity="1"><g transform="translate(46.608517, 33.965117)"><g><path d="M 7.9375 0 L 1.40625 0 L 1.40625 -15.8125 L 7.671875 -15.8125 C 9.609375 -15.8125 11.003906 -15.382812 11.859375 -14.53125 C 12.503906 -13.882812 12.828125 -12.992188 12.828125 -11.859375 C 12.828125 -10.960938 12.625 -10.195312 12.21875 -9.5625 C 11.8125 -8.925781 11.234375 -8.507812 10.484375 -8.3125 C 11.515625 -8.144531 12.296875 -7.738281 12.828125 -7.09375 C 13.367188 -6.457031 13.640625 -5.628906 13.640625 -4.609375 C 13.640625 -3.847656 13.503906 -3.179688 13.234375 -2.609375 C 12.960938 -2.046875 12.628906 -1.59375 12.234375 -1.25 C 11.773438 -0.875 11.265625 -0.59375 10.703125 -0.40625 C 10.148438 -0.226562 9.625 -0.113281 9.125 -0.0625 C 8.632812 -0.0195312 8.238281 0 7.9375 0 Z M 4.390625 -13.140625 L 4.390625 -9.25 L 7.484375 -9.25 C 8.242188 -9.25 8.820312 -9.414062 9.21875 -9.75 C 9.625 -10.09375 9.828125 -10.582031 9.828125 -11.21875 C 9.828125 -11.84375 9.640625 -12.296875 9.265625 -12.578125 C 8.835938 -12.953125 8.085938 -13.140625 7.015625 -13.140625 Z M 4.390625 -6.828125 L 4.390625 -2.671875 L 7.5625 -2.671875 C 7.96875 -2.671875 8.40625 -2.703125 8.875 -2.765625 C 9.34375 -2.835938 9.738281 -3.015625 10.0625 -3.296875 C 10.25 -3.453125 10.390625 -3.648438 10.484375 -3.890625 C 10.585938 -4.140625 10.640625 -4.453125 10.640625 -4.828125 C 10.640625 -5.453125 10.492188 -5.898438 10.203125 -6.171875 C 9.921875 -6.453125 9.566406 -6.628906 9.140625 -6.703125 C 8.722656 -6.785156 8.3125 -6.828125 7.90625 -6.828125 Z M 4.390625 -6.828125 "/></g></g></g><g fill="#ffffff" fill-opacity="1"><g transform="translate(61.079584, 33.965117)"><g><path d="M 6.734375 0.234375 C 5.578125 0.234375 4.546875 -0.0195312 3.640625 -0.53125 C 2.742188 -1.050781 2.039062 -1.769531 1.53125 -2.6875 C 1.03125 -3.601562 0.78125 -4.671875 0.78125 -5.890625 C 0.78125 -7.066406 1.03125 -8.101562 1.53125 -9 C 2.039062 -9.894531 2.738281 -10.597656 3.625 -11.109375 C 4.519531 -11.617188 5.554688 -11.875 6.734375 -11.875 C 7.910156 -11.875 8.945312 -11.617188 9.84375 -11.109375 C 10.75 -10.597656 11.453125 -9.894531 11.953125 -9 C 12.453125 -8.101562 12.703125 -7.066406 12.703125 -5.890625 C 12.703125 -4.679688 12.453125 -3.617188 11.953125 -2.703125 C 11.460938 -1.785156 10.765625 -1.066406 9.859375 -0.546875 C 8.960938 -0.0234375 7.921875 0.234375 6.734375 0.234375 Z M 6.734375 -2.171875 C 7.648438 -2.171875 8.390625 -2.515625 8.953125 -3.203125 C 9.523438 -3.898438 9.8125 -4.796875 9.8125 -5.890625 C 9.8125 -6.578125 9.679688 -7.191406 9.421875 -7.734375 C 9.171875 -8.273438 8.816406 -8.695312 8.359375 -9 C 7.898438 -9.3125 7.359375 -9.46875 6.734375 -9.46875 C 6.140625 -9.46875 5.609375 -9.316406 5.140625 -9.015625 C 4.671875 -8.710938 4.304688 -8.289062 4.046875 -7.75 C 3.785156 -7.21875 3.65625 -6.597656 3.65625 -5.890625 C 3.65625 -4.785156 3.941406 -3.890625 4.515625 -3.203125 C 5.097656 -2.515625 5.835938 -2.171875 6.734375 -2.171875 Z M 6.734375 -2.171875 "/></g></g></g><g fill="#ffffff" fill-opacity="1"><g transform="translate(74.596964, 33.965117)"><g><path d="M 6.734375 0.234375 C 5.578125 0.234375 4.546875 -0.0195312 3.640625 -0.53125 C 2.742188 -1.050781 2.039062 -1.769531 1.53125 -2.6875 C 1.03125 -3.601562 0.78125 -4.671875 0.78125 -5.890625 C 0.78125 -7.066406 1.03125 -8.101562 1.53125 -9 C 2.039062 -9.894531 2.738281 -10.597656 3.625 -11.109375 C 4.519531 -11.617188 5.554688 -11.875 6.734375 -11.875 C 7.910156 -11.875 8.945312 -11.617188 9.84375 -11.109375 C 10.75 -10.597656 11.453125 -9.894531 11.953125 -9 C 12.453125 -8.101562 12.703125 -7.066406 12.703125 -5.890625 C 12.703125 -4.679688 12.453125 -3.617188 11.953125 -2.703125 C 11.460938 -1.785156 10.765625 -1.066406 9.859375 -0.546875 C 8.960938 -0.0234375 7.921875 0.234375 6.734375 0.234375 Z M 6.734375 -2.171875 C 7.648438 -2.171875 8.390625 -2.515625 8.953125 -3.203125 C 9.523438 -3.898438 9.8125 -4.796875 9.8125 -5.890625 C 9.8125 -6.578125 9.679688 -7.191406 9.421875 -7.734375 C 9.171875 -8.273438 8.816406 -8.695312 8.359375 -9 C 7.898438 -9.3125 7.359375 -9.46875 6.734375 -9.46875 C 6.140625 -9.46875 5.609375 -9.316406 5.140625 -9.015625 C 4.671875 -8.710938 4.304688 -8.289062 4.046875 -7.75 C 3.785156 -7.21875 3.65625 -6.597656 3.65625 -5.890625 C 3.65625 -4.785156 3.941406 -3.890625 4.515625 -3.203125 C 5.097656 -2.515625 5.835938 -2.171875 6.734375 -2.171875 Z M 6.734375 -2.171875 "/></g></g></g><g fill="#ffffff" fill-opacity="1"><g transform="translate(88.114344, 33.965117)"><g><path d="M 4.078125 0 L 1.28125 0 L 1.28125 -15.8125 L 4.078125 -15.8125 L 4.078125 -7.34375 L 8.328125 -11.625 L 11.875 -11.625 L 6.734375 -6.59375 L 12.25 0 L 8.8125 0 L 4.078125 -5.78125 Z M 4.078125 0 "/></g></g></g><g fill="#ffffff" fill-opacity="1"><g transform="translate(99.786463, 33.965117)"><g><path d="M 6.734375 0.234375 C 5.578125 0.234375 4.546875 -0.0195312 3.640625 -0.53125 C 2.742188 -1.050781 2.039062 -1.769531 1.53125 -2.6875 C 1.03125 -3.601562 0.78125 -4.671875 0.78125 -5.890625 C 0.78125 -7.066406 1.03125 -8.101562 1.53125 -9 C 2.039062 -9.894531 2.738281 -10.597656 3.625 -11.109375 C 4.519531 -11.617188 5.554688 -11.875 6.734375 -11.875 C 7.910156 -11.875 8.945312 -11.617188 9.84375 -11.109375 C 10.75 -10.597656 11.453125 -9.894531 11.953125 -9 C 12.453125 -8.101562 12.703125 -7.066406 12.703125 -5.890625 C 12.703125 -4.679688 12.453125 -3.617188 11.953125 -2.703125 C 11.460938 -1.785156 10.765625 -1.066406 9.859375 -0.546875 C 8.960938 -0.0234375 7.921875 0.234375 6.734375 0.234375 Z M 6.734375 -2.171875 C 7.648438 -2.171875 8.390625 -2.515625 8.953125 -3.203125 C 9.523438 -3.898438 9.8125 -4.796875 9.8125 -5.890625 C 9.8125 -6.578125 9.679688 -7.191406 9.421875 -7.734375 C 9.171875 -8.273438 8.816406 -8.695312 8.359375 -9 C 7.898438 -9.3125 7.359375 -9.46875 6.734375 -9.46875 C 6.140625 -9.46875 5.609375 -9.316406 5.140625 -9.015625 C 4.671875 -8.710938 4.304688 -8.289062 4.046875 -7.75 C 3.785156 -7.21875 3.65625 -6.597656 3.65625 -5.890625 C 3.65625 -4.785156 3.941406 -3.890625 4.515625 -3.203125 C 5.097656 -2.515625 5.835938 -2.171875 6.734375 -2.171875 Z M 6.734375 -2.171875 "/></g></g></g><g fill="#ffffff" fill-opacity="1"><g transform="translate(113.303843, 33.965117)"><g><path d="M 4.0625 0 L 1.265625 0 L 1.265625 -11.625 L 4.0625 -11.625 L 4.0625 -10.25 C 4.507812 -10.851562 5.003906 -11.273438 5.546875 -11.515625 C 6.085938 -11.753906 6.695312 -11.875 7.375 -11.875 L 7.71875 -11.875 L 7.71875 -9.1875 L 7.078125 -9.1875 C 6.597656 -9.1875 6.1875 -9.125 5.84375 -9 C 5.507812 -8.875 5.226562 -8.703125 5 -8.484375 C 4.695312 -8.179688 4.460938 -7.78125 4.296875 -7.28125 C 4.140625 -6.789062 4.0625 -6.160156 4.0625 -5.390625 Z M 4.0625 0 "/></g></g></g><g fill="#ffffff" fill-opacity="1"><g transform="translate(121.285713, 33.965117)"><g><path d="M 4.625 0.234375 C 3.53125 0.234375 2.617188 -0.0546875 1.890625 -0.640625 C 1.171875 -1.234375 0.8125 -2.082031 0.8125 -3.1875 C 0.8125 -3.8125 0.929688 -4.34375 1.171875 -4.78125 C 1.410156 -5.21875 1.734375 -5.570312 2.140625 -5.84375 C 2.515625 -6.101562 2.9375 -6.3125 3.40625 -6.46875 C 3.882812 -6.625 4.367188 -6.75 4.859375 -6.84375 L 8.3125 -7.484375 C 8.28125 -8.203125 8.09375 -8.75 7.75 -9.125 C 7.40625 -9.5 6.890625 -9.6875 6.203125 -9.6875 C 5.671875 -9.6875 5.203125 -9.53125 4.796875 -9.21875 C 4.390625 -8.90625 4.128906 -8.472656 4.015625 -7.921875 L 1.25 -7.921875 C 1.382812 -8.828125 1.695312 -9.570312 2.1875 -10.15625 C 2.6875 -10.738281 3.289062 -11.171875 4 -11.453125 C 4.71875 -11.734375 5.457031 -11.875 6.21875 -11.875 C 6.894531 -11.875 7.546875 -11.773438 8.171875 -11.578125 C 8.796875 -11.390625 9.320312 -11.097656 9.75 -10.703125 C 10.195312 -10.296875 10.519531 -9.832031 10.71875 -9.3125 C 10.914062 -8.800781 11.03125 -8.265625 11.0625 -7.703125 C 11.09375 -7.140625 11.109375 -6.585938 11.109375 -6.046875 L 11.109375 0 L 8.3125 0 L 8.3125 -1.578125 C 8.019531 -1.066406 7.664062 -0.679688 7.25 -0.421875 C 6.894531 -0.179688 6.492188 -0.015625 6.046875 0.078125 C 5.597656 0.179688 5.125 0.234375 4.625 0.234375 Z M 5.3125 -1.96875 C 5.863281 -1.96875 6.359375 -2.078125 6.796875 -2.296875 C 7.410156 -2.597656 7.820312 -3.003906 8.03125 -3.515625 C 8.25 -4.035156 8.363281 -4.675781 8.375 -5.4375 L 5.59375 -4.875 C 5.195312 -4.800781 4.867188 -4.707031 4.609375 -4.59375 C 4.359375 -4.488281 4.148438 -4.359375 3.984375 -4.203125 C 3.867188 -4.097656 3.773438 -3.96875 3.703125 -3.8125 C 3.640625 -3.664062 3.609375 -3.492188 3.609375 -3.296875 C 3.609375 -2.867188 3.769531 -2.539062 4.09375 -2.3125 C 4.414062 -2.082031 4.820312 -1.96875 5.3125 -1.96875 Z M 5.3125 -1.96875 "/></g></g></g></svg>