<svg xmlns="http://www.w3.org/2000/svg" width="153" height="153" viewBox="0 0 153 153" fill="none"><g clip-path="url(#clip0_58_950)"><path fill-rule="evenodd" clip-rule="evenodd" d="M91.4664 94.7548C104.553 90.1821 117.521 83.1338 126.117 72.2701C129.245 68.3176 131.304 63.8984 133.453 59.393C133.604 59.0774 133.47 58.6969 133.153 58.5446C132.835 58.3936 132.455 58.5279 132.303 58.8459C130.195 63.2639 128.186 67.6036 125.118 71.4797C116.644 82.1893 103.835 89.1031 90.932 93.5935L90.847 93.4006C89.9288 91.3035 87.2828 89.6786 83.888 88.6529C79.022 87.1819 72.6354 86.8746 68.1559 87.7514C66.1432 88.1458 64.5065 88.7893 63.511 89.6422C62.7344 90.3067 62.3177 91.1037 62.3143 92.0093C62.3085 93.939 63.9754 95.3871 66.6326 96.2698C72.1892 98.1175 82.0922 97.7075 86.3072 96.4339C87.6232 96.0358 88.9441 95.6148 90.2638 95.1678C90.4353 95.5322 90.6018 95.8899 90.748 96.2448C91.1614 97.2576 91.4109 98.2663 91.0987 99.489C90.6099 101.394 89.3258 103.043 87.7151 104.46C85.1998 106.67 81.8813 108.308 79.3156 109.403C65.0258 115.498 52.0171 113.122 41.1586 108.317C30.1933 103.462 21.4023 96.1373 15.6591 92.4295C15.364 92.2382 14.9706 92.3245 14.7793 92.6195C14.588 92.9146 14.6732 93.3092 14.9693 93.4993C20.7493 97.2314 29.6051 104.595 40.6442 109.48C51.7901 114.415 65.1459 116.831 79.8149 110.575C82.4877 109.435 85.9365 107.718 88.5555 105.417C90.3678 103.823 91.7824 101.948 92.3323 99.8043C92.8249 97.8801 92.2202 96.3875 91.4664 94.7548ZM89.7223 94.0069L89.6809 93.9103C88.8785 92.0771 86.4884 90.7688 83.5198 89.8724C78.844 88.4588 72.7069 88.1587 68.4003 89.0023C66.9236 89.2906 65.6691 89.7108 64.7848 90.2796C64.0559 90.7496 63.59 91.3092 63.5889 92.0129C63.5848 92.6776 63.9055 93.2344 64.4381 93.7075C65.0626 94.2641 65.9603 94.7045 67.0334 95.0618C72.3729 96.8367 81.8885 96.4392 85.9385 95.215C87.196 94.8338 88.4585 94.4322 89.7223 94.0069Z" fill="black"></path><path fill-rule="evenodd" clip-rule="evenodd" d="M133.082 56.8717C133.247 57.0965 133.376 57.4653 133.51 57.8636C133.831 58.812 134.054 59.9512 134.181 60.4839C134.264 60.8265 134.609 61.0356 134.95 60.9541C135.293 60.8714 135.503 60.528 135.42 60.1855C135.264 59.5331 134.963 58.0155 134.533 56.9561C134.302 56.3879 134.016 55.9423 133.724 55.7176C133.228 55.3341 132.606 55.4371 131.964 56.1783C131.204 57.0556 130.185 59.0405 128.455 59.9045C128.141 60.0606 128.013 60.4451 128.17 60.7581C128.327 61.0734 128.71 61.2012 129.025 61.0439C130.674 60.2193 131.786 58.5208 132.595 57.4323C132.749 57.2257 132.957 57.0022 133.082 56.8717Z" fill="black"></path></g><defs><clipPath id="clip0_58_950"><rect width="108" height="108" fill="white" transform="translate(0 79.8967) rotate(-47.7131)"></rect></clipPath></defs></svg>